HIERARCHY
ROOT reference
{
  OFFSET 0 0 0
  CHANNELS 6 Xposition Yposition Zposition Zrotation Xrotation Yrotation
  JOINT Hips
  {
    OFFSET -86.2005 98.832 192.84
    CHANNELS 6 Xposition Yposition Zposition Zrotation Xrotation Yrotation
    JOINT Spine
    {
      OFFSET 0 7.86299 0
      CHANNELS 6 Xposition Yposition Zposition Zrotation Xrotation Yrotation
      JOINT Spine1
      {
        OFFSET 0 22.6654 0
        CHANNELS 6 Xposition Yposition Zposition Zrotation Xrotation Yrotation
        JOINT Neck
        {
          OFFSET 0 22.5723 2.05203
          CHANNELS 6 Xposition Yposition Zposition Zrotation Xrotation Yrotation
          JOINT Head
          {
            OFFSET 0 13.4246 -1.9178
            CHANNELS 6 Xposition Yposition Zposition Zrotation Xrotation Yrotation
            End Site
            {
              OFFSET 0 23.9725 0
            }
          }
        }
        JOINT LeftShoulder
        {
          OFFSET 3.7941 20.1358 -0.319195
          CHANNELS 6 Xposition Yposition Zposition Zrotation Xrotation Yrotation
          JOINT LeftArm
          {
            OFFSET 12.7665 0 0
            CHANNELS 6 Xposition Yposition Zposition Zrotation Xrotation Yrotation
            JOINT LeftForeArm
            {
              OFFSET 28.396 0 0
              CHANNELS 6 Xposition Yposition Zposition Zrotation Xrotation Yrotation
              JOINT LeftHand
              {
                OFFSET 28.7929 0 0
                CHANNELS 6 Xposition Yposition Zposition Zrotation Xrotation Yrotation
                End Site
                {
                  OFFSET 14.3835 0 0
                }
              }
            }
          }
        }
        JOINT RightShoulder
        {
          OFFSET -3.85764 20.1358 -0.319195
          CHANNELS 6 Xposition Yposition Zposition Zrotation Xrotation Yrotation
          JOINT RightArm
          {
            OFFSET -12.7665 0 0
            CHANNELS 6 Xposition Yposition Zposition Zrotation Xrotation Yrotation
            JOINT RightForeArm
            {
              OFFSET -28.396 0 0
              CHANNELS 6 Xposition Yposition Zposition Zrotation Xrotation Yrotation
              JOINT RightHand
              {
                OFFSET -28.7929 0 0
                CHANNELS 6 Xposition Yposition Zposition Zrotation Xrotation Yrotation
                End Site
                {
                  OFFSET -14.3835 0 0
                }
              }
            }
          }
        }
      }
    }
    JOINT LeftUpLeg
    {
      OFFSET 9.58901 0 0
      CHANNELS 6 Xposition Yposition Zposition Zrotation Xrotation Yrotation
      JOINT LeftLeg
      {
        OFFSET 0 -41.7092 0
        CHANNELS 6 Xposition Yposition Zposition Zrotation Xrotation Yrotation
        JOINT LeftFoot
        {
          OFFSET 0 -41.5308 0
          CHANNELS 6 Xposition Yposition Zposition Zrotation Xrotation Yrotation
          JOINT LeftToeBase
          {
            OFFSET 0 -6.23286 14.3835
            CHANNELS 6 Xposition Yposition Zposition Zrotation Xrotation Yrotation
            End Site
            {
              OFFSET 0 0 3.8356
            }
          }
        }
      }
    }
    JOINT RightUpLeg
    {
      OFFSET -9.58901 0 0
      CHANNELS 6 Xposition Yposition Zposition Zrotation Xrotation Yrotation
      JOINT RightLeg
      {
        OFFSET 0 -41.7092 0
        CHANNELS 6 Xposition Yposition Zposition Zrotation Xrotation Yrotation
        JOINT RightFoot
        {
          OFFSET 0 -41.5308 0
          CHANNELS 6 Xposition Yposition Zposition Zrotation Xrotation Yrotation
          JOINT RightToeBase
          {
            OFFSET 0 -6.23286 14.3835
            CHANNELS 6 Xposition Yposition Zposition Zrotation Xrotation Yrotation
            End Site
            {
              OFFSET 0 0 3.8356
            }
          }
        }
      }
    }
  }
}
MOTION
Frames:	7
Frame Time:	0.004
0 0 0 0 0 -0 104.716 78.9381 -121.004 8.13346 2.21581 11.9983 -2.84217e-014 7.86299 1.42109e-014 -1.05936 1.14668 -0.912653 0 22.6654 0 -6.33015 1.04899 -0.865217 0 22.5723 2.05203 11.855 36.965 -4.53493 2.84217e-014 13.4246 -1.9178 5.51946 -12.3583 -0.86631 3.7941 20.1358 -0.319195 22.4972 -10.7271 -7.50244 12.7665 -2.84217e-014 0 -13.6943 -33.0639 -15.1054 28.396 -2.84217e-014 -1.42109e-014 22.8636 -27.5596 -73.4169 28.7929 0 0 66.6705 3.14666 21.5643 -3.85764 20.1358 -0.319195 -33.8823 -21.0107 19.432 -12.7665 -2.84217e-014 -7.10543e-015 -6.42582 2.99982 15.261 -28.396 0 -7.10543e-015 -40.4965 -32.0432 47.824 -28.7929 0 -1.42109e-014 -27.4727 -13.082 -7.13369 9.58901 -7.10543e-015 1.42109e-014 14.2568 3.33413 6.02422 2.84217e-014 -41.7092 0 -9.32541 15.4429 2.87301 0 -41.5308 -1.42109e-014 -8.6775 -20.5264 17.5399 0 -6.23286 14.3835 -7.95139e-016 -1.59028e-015 -6.36111e-015 -9.58901 7.10543e-015 1.42109e-014 -13.713 -25.9265 -0.238069 0 -41.7092 -1.42109e-014 98.6321 86.7187 -86.0859 1.42109e-014 -41.5308 -1.42109e-014 -5.39277 -23.6036 -13.2936 1.42109e-014 -6.23286 14.3835 -2.64834e-031 9.54166e-015 1.59028e-015 
0 0 0 0 0 -0 105.186 78.9562 -120.482 8.15533 2.27928 11.404 2.84217e-014 7.86299 0 -0.86915 1.20712 -1.3023 0 22.6654 0 -6.7453 1.21201 -1.24006 -1.42109e-014 22.5723 2.05203 12.339 37.0723 -4.45444 0 13.4246 -1.9178 5.84918 -12.3522 -0.584326 3.7941 20.1358 -0.319195 22.5276 -10.0563 -6.89498 12.7665 -1.42109e-014 0 -12.7818 -31.9719 -13.987 28.396 0 1.42109e-014 23.7391 -27.0718 -72.5964 28.7929 0 2.84217e-014 65.7547 2.97316 20.246 -3.85764 20.1358 -0.319195 -33.995 -21.3759 19.2299 -12.7665 2.84217e-014 0 -6.37957 2.5328 15.0234 -28.396 0 -7.10543e-015 -41.6518 -33.1964 49.2515 -28.7929 0 -1.42109e-014 -30.5587 -12.233 -9.89921 9.58901 7.10543e-015 1.42109e-014 14.0156 3.7397 5.44562 0 -41.7092 1.42109e-014 -9.74222 15.5561 3.91233 0 -41.5308 -1.42109e-014 -8.56817 -20.8099 17.6491 0 -6.23286 14.3835 9.93923e-016 -5.96354e-016 3.18055e-015 -9.58901 7.10543e-015 -1.42109e-014 -13.1881 -27.6484 -0.230744 0 -41.7092 0 97.9663 86.2535 -85.7845 -1.42109e-014 -41.5308 -7.10543e-015 -5.29116 -23.6276 -12.9074 1.42109e-014 -6.23286 14.3835 1.59028e-015 3.18055e-015 -0 
0 0 0 0 0 -0 105.627 79.0197 -119.94 8.16627 2.34367 10.82 2.84217e-014 7.86299 0 -0.727227 1.1921 -1.61685 0 22.6654 0 -7.10569 1.4476 -1.53458 0 22.5723 2.05203 12.8359 36.7943 -4.42775 0 13.4246 -1.9178 6.16065 -11.7582 -0.443422 3.7941 20.1358 -0.319195 22.5463 -9.31787 -6.52224 12.7665 0 0 -11.8784 -31.1114 -12.8157 28.396 0 1.42109e-014 24.4602 -26.5157 -72.0973 28.7929 -1.42109e-014 0 64.3401 3.12846 19.4765 -3.85764 20.1358 -0.319195 -34.0647 -21.697 18.6709 -12.7665 -2.84217e-014 0 -6.29218 1.01067 14.9321 -28.396 -2.84217e-014 0 -41.4111 -33.6584 52.067 -28.7929 0 -2.84217e-014 -33.7343 -10.5339 -12.4223 9.58901 0 1.42109e-014 13.775 4.20286 5.00839 2.84217e-014 -41.7092 0 -10.1223 15.6482 3.92106 0 -41.5308 -1.42109e-014 -8.28016 -21.1786 18.7318 0 -6.23286 14.3835 2.38542e-015 2.5842e-015 -3.18055e-015 -9.58901 -7.10543e-015 0 -12.5352 -29.2706 -0.241625 0 -41.7092 -1.42109e-014 94.6553 85.9175 -82.721 0 -41.5308 7.10543e-015 -5.20853 -23.6237 -12.5597 0 -6.23286 14.3835 2.38542e-015 3.18055e-015 -0 
0 0 0 0 0 -0 106.053 79.1061 -119.383 8.1952 2.47564 10.2512 0 7.86299 0 -0.626786 1.12098 -1.91932 0 22.6654 0 -7.42921 1.62126 -1.82019 -1.42109e-014 22.5723 2.05203 13.3188 36.0807 -4.37574 0 13.4246 -1.9178 6.18162 -10.2383 -0.465584 3.7941 20.1358 -0.319195 22.379 -8.51292 -6.0214 12.7665 1.42109e-014 0 -11.1891 -30.0618 -11.9371 28.396 -2.84217e-014 0 25.1639 -26.2102 -71.7305 28.7929 0 5.68434e-014 62.6242 2.80944 18.4138 -3.85764 20.1358 -0.319195 -34.0609 -21.9575 18.153 -12.7665 -2.84217e-014 -7.10543e-015 -6.26174 0.499176 15.0722 -28.396 2.84217e-014 0 -42.9483 -34.5473 53.0266 -28.7929 1.42109e-014 1.42109e-014 -35.9981 -9.18816 -14.8044 9.58901 -7.10543e-015 0 13.4455 4.62091 4.75336 0 -41.7092 -1.42109e-014 -10.3412 15.7176 3.60443 2.84217e-014 -41.5308 0 -7.94381 -21.2564 19.9309 -2.84217e-014 -6.23286 14.3835 1.98785e-016 -1.98785e-016 -6.36111e-015 -9.58901 0 1.42109e-014 -11.8433 -30.8775 -0.306399 1.42109e-014 -41.7092 1.42109e-014 90.0728 85.5797 -78.2639 1.42109e-014 -41.5308 -1.42109e-014 -5.08508 -23.6952 -12.387 -2.84217e-014 -6.23286 14.3835 1.59028e-015 -1.27222e-014 -2.38542e-015 
0 0 0 0 0 -0 106.48 79.1983 -118.796 8.19497 2.60236 9.73179 0 7.86299 0 -0.49364 1.17039 -2.26515 0 22.6654 -1.42109e-014 -7.70827 1.48436 -2.17021 1.42109e-014 22.5723 2.05203 13.8792 36.6583 -4.25512 0 13.4246 -1.9178 6.17801 -10.7997 -0.110986 3.7941 20.1358 -0.319195 22.0684 -7.50263 -5.5799 12.7665 -2.84217e-014 0 -10.5314 -28.974 -10.9841 28.396 0 -1.42109e-014 26.0329 -25.9067 -71.4407 28.7929 0 0 60.7508 2.5076 17.095 -3.85764 20.1358 -0.319195 -33.9884 -22.1137 17.8697 -12.7665 0 0 -6.30438 -1.40576 15.0637 -28.396 -2.84217e-014 1.42109e-014 -42.7155 -34.604 55.605 -28.7929 0 0 -37.7335 -7.21339 -16.5961 9.58901 -7.10543e-015 1.42109e-014 13.1034 5.07684 4.65585 0 -41.7092 0 -10.4245 15.7012 3.17516 0 -41.5308 1.42109e-014 -7.78356 -21.3196 21.0378 0 -6.23286 14.3835 9.93923e-017 9.93923e-016 -0 -9.58901 0 1.42109e-014 -11.0823 -32.3985 -0.426955 -2.84217e-014 -41.7092 -7.10543e-015 83.3884 85.2086 -72.0018 0 -41.5308 0 -4.34649 -23.9304 -11.9524 0 -6.23286 14.3835 7.95139e-016 1.27222e-014 1.59028e-015 
0 0 0 0 0 -0 106.909 79.3128 -118.195 8.22108 2.71503 9.20018 0 7.86299 0 -0.363023 1.00261 -2.54813 0 22.6654 1.42109e-014 -7.97406 1.70364 -2.43259 -1.42109e-014 22.5723 2.05203 13.784 36.5305 -4.4488 0 13.4246 -1.9178 6.81207 -10.034 -0.246559 3.7941 20.1358 -0.319195 21.6924 -6.781 -5.20234 12.7665 0 -1.42109e-014 -9.93103 -27.8922 -10.0351 28.396 0 0 26.6247 -25.6054 -71.3509 28.7929 0 -2.84217e-014 58.2976 1.92685 15.609 -3.85764 20.1358 -0.319195 -33.9932 -22.105 17.6281 -12.7665 2.84217e-014 -7.10543e-015 -6.24491 -3.128 14.7657 -28.396 0 -1.42109e-014 -42.9723 -35.0317 57.6381 -28.7929 1.42109e-014 0 -38.7523 -5.84029 -17.9591 9.58901 7.10543e-015 0 12.6552 5.63687 4.61859 0 -41.7092 -1.42109e-014 -10.3349 15.4962 2.97616 2.84217e-014 -41.5308 0 -7.4715 -21.0044 21.6053 -2.84217e-014 -6.23286 14.3835 -3.47873e-016 -1.04362e-015 -0 -9.58901 -7.10543e-015 0 -10.2851 -33.8171 -0.548895 1.42109e-014 -41.7092 7.10543e-015 76.5148 84.7075 -65.6082 -1.42109e-014 -41.5308 -7.10543e-015 -3.80855 -23.7602 -11.9599 1.42109e-014 -6.23286 14.3835 3.97569e-016 6.36111e-015 -0 
0 0 0 0 0 -0 107.349 79.4633 -117.543 8.2467 2.8251 8.62948 0 7.86299 0 -0.232651 0.840024 -2.78963 0 22.6654 -1.42109e-014 -8.19981 1.84735 -2.65892 0 22.5723 2.05203 13.8999 36.6233 -4.58557 0 13.4246 -1.9178 7.07152 -9.69835 -0.311525 3.7941 20.1358 -0.319195 21.2428 -5.66171 -4.95437 12.7665 1.42109e-014 -1.42109e-014 -9.33291 -26.7884 -9.00876 28.396 -2.84217e-014 0 27.4604 -25.5449 -70.9751 28.7929 1.42109e-014 2.84217e-014 55.7724 1.24068 14.1043 -3.85764 20.1358 -0.319195 -34.032 -22.3065 17.2595 -12.7665 -2.84217e-014 7.10543e-015 -5.9841 -4.83439 14.6775 -28.396 -2.84217e-014 0 -42.8742 -35.4287 59.8368 -28.7929 0 0 -39.5912 -4.73113 -18.8229 9.58901 1.42109e-014 0 12.0904 6.36503 4.58437 0 -41.7092 -1.42109e-014 -10.0542 14.9888 3.29565 0 -41.5308 0 -7.82928 -20.7204 21.8223 0 -6.23286 14.3835 -2.08724e-015 -3.97569e-016 -9.54166e-015 -9.58901 0 0 -9.51828 -35.1002 -0.45692 0 -41.7092 0 70.0157 83.841 -58.74 -1.42109e-014 -41.5308 -7.10543e-015 -3.86966 -23.6731 -12.494 1.42109e-014 -6.23286 14.3835 1.98785e-016 0 -7.95139e-016 
